<?xml version="1.0" standalone="no"?>
<!DOCTYPE svg PUBLIC "-//W3C//DTD SVG 20010904//EN"
 "http://www.w3.org/TR/2001/REC-SVG-20010904/DTD/svg10.dtd">
<svg version="1.0" xmlns="http://www.w3.org/2000/svg"
 width="672.000000pt" height="672.000000pt" viewBox="0 0 672.000000 672.000000"
 preserveAspectRatio="xMidYMid meet">

<g transform="translate(0.000000,672.000000) scale(0.100000,-0.100000)"
fill="#000000" stroke="none">
<path d="M3006 6220 c-235 -15 -542 -87 -786 -185 -194 -77 -368 -169 -552
-292 -73 -49 -92 -77 -30 -44 47 25 193 86 252 105 25 7 82 26 126 40 45 14
157 40 250 58 166 32 174 32 454 32 280 0 288 0 455 -32 94 -18 181 -37 195
-42 14 -5 64 -21 112 -35 215 -64 476 -194 687 -342 238 -168 473 -407 631
-644 149 -222 276 -497 335 -721 7 -29 22 -87 33 -128 61 -230 75 -638 31
-955 -10 -72 -17 -106 -49 -225 -98 -366 -253 -670 -493 -967 -157 -195 -423
-423 -652 -560 -250 -149 -574 -270 -858 -319 -292 -50 -760 -38 -977 25 -36
11 -90 25 -120 32 -73 16 -254 81 -363 130 -48 21 -90 39 -93 39 -17 0 156
-119 251 -172 240 -136 461 -225 717 -288 198 -50 303 -66 503 -81 497 -35
1012 70 1455 297 78 40 120 64 257 148 55 34 180 127 273 204 225 186 426 423
605 712 143 230 275 577 342 900 l38 185 0 345 c0 232 -4 363 -12 400 -7 30
-26 118 -42 195 -72 336 -211 658 -417 971 -68 103 -235 307 -325 397 -118
116 -342 301 -409 337 -14 7 -27 17 -30 21 -21 32 -400 232 -500 264 -30 10
-64 24 -75 31 -34 21 -324 101 -465 128 -212 41 -477 53 -754 36z m1099 -252
c17 -7 22 -14 14 -19 -7 -4 -28 -38 -48 -76 -32 -61 -39 -68 -66 -68 -20 0
-31 5 -33 18 -2 9 1 17 7 17 6 0 11 -7 11 -15 0 -8 4 -15 9 -15 11 0 30 31 61
98 20 45 22 55 10 63 -22 13 4 11 35 -3z m85 -107 c0 -5 -12 -29 -26 -55 -29
-52 -26 -76 9 -76 17 0 30 11 46 40 12 22 19 44 16 50 -7 12 -3 12 19 4 14 -6
12 -14 -14 -61 -17 -29 -28 -58 -25 -63 4 -6 1 -10 -5 -10 -6 0 -13 7 -16 15
-4 8 -16 15 -28 15 -48 0 -59 43 -26 98 11 18 18 37 15 43 -4 5 3 9 14 9 12 0
21 -4 21 -9z m164 -97 c9 -3 13 -10 10 -15 -3 -5 6 -9 20 -9 28 0 41 -14 30
-32 -5 -8 -11 -6 -20 6 -8 11 -20 16 -31 12 -23 -8 -66 -73 -57 -87 4 -8 0 -7
-14 0 -27 15 -37 31 -19 31 15 0 60 65 60 88 0 14 0 14 21 6z m172 -113 c42
-18 39 -45 -10 -116 -12 -16 -22 -32 -23 -34 -1 -2 -9 1 -16 8 -12 9 -8 17 19
47 39 41 45 79 13 89 -11 4 -22 5 -23 3 -1 -1 -16 -21 -34 -44 -17 -23 -28
-45 -24 -49 4 -4 -4 -2 -17 5 -13 7 -20 15 -15 19 28 19 72 85 66 100 -5 14
-3 14 18 -2 14 -9 35 -21 46 -26z m148 -122 c14 -11 26 -24 26 -28 0 -5 -16
-29 -36 -55 -19 -25 -32 -51 -28 -57 3 -6 -3 -5 -14 2 -12 7 -19 15 -16 18 2
3 -10 11 -27 18 -23 9 -30 18 -27 34 5 35 30 44 69 25 32 -16 34 -16 46 1 17
23 16 31 -5 42 -13 7 -23 6 -30 -1 -14 -14 -27 -4 -17 11 10 17 30 13 59 -10z
m116 -110 c-27 -31 -56 -62 -65 -69 -8 -7 -15 -19 -15 -28 0 -13 -3 -13 -19 2
-18 16 -16 19 50 82 44 43 66 71 62 81 -5 13 -3 13 15 2 20 -13 19 -14 -28
-70z m120 -34 c0 -8 -7 -15 -15 -15 -16 0 -20 12 -8 23 11 12 23 8 23 -8z
m-46 -33 c3 -5 -15 -28 -39 -52 -24 -24 -42 -47 -39 -52 8 -12 -10 -10 -24 4
-16 16 -15 28 2 28 7 0 29 18 47 39 35 41 44 47 53 33z m96 -104 c24 -26 25
-32 4 -49 -13 -11 -14 -9 -9 12 4 17 1 30 -9 38 -26 22 -36 3 -30 -54 6 -49 5
-53 -17 -60 -19 -6 -28 -1 -51 25 -22 27 -25 36 -15 48 10 13 13 10 15 -17 4
-34 26 -51 44 -33 7 7 6 21 -2 46 -9 29 -9 40 0 51 18 21 46 18 70 -7z m108
-108 c-9 -14 -9 -23 2 -37 14 -17 13 -17 -7 1 -22 18 -23 18 -63 -14 -45 -35
-48 -44 -22 -59 14 -9 14 -10 2 -11 -21 0 -40 20 -40 41 0 10 18 30 40 46 22
15 40 35 40 44 0 12 8 14 29 11 26 -4 28 -6 19 -22z m112 -85 c0 -8 -4 -15 -9
-15 -13 0 -22 16 -14 24 11 11 23 6 23 -9z m-50 -35 c0 -6 -18 -22 -41 -37
-23 -15 -44 -36 -48 -46 -7 -18 -9 -17 -24 7 -16 24 -16 26 -1 26 17 0 86 47
92 62 5 10 22 0 22 -12z m119 -44 c10 -12 2 -20 -43 -48 -74 -44 -73 -48 8
-52 11 -1 21 -7 24 -15 3 -10 -2 -11 -19 -6 -13 4 -31 8 -39 11 -11 3 -19 -9
-29 -41 -14 -46 -31 -60 -31 -25 0 10 5 31 12 45 6 14 9 28 5 31 -9 9 -48 -16
-42 -27 4 -5 2 -9 -3 -9 -9 0 -26 31 -20 35 2 0 38 23 81 49 42 26 75 52 72
57 -10 15 11 10 24 -5z m143 -283 c15 -19 41 -74 36 -78 -16 -13 -48 -24 -48
-16 0 5 5 13 10 16 15 9 12 51 -4 64 -31 26 -56 -8 -56 -79 0 -41 -15 -60 -45
-60 -33 0 -55 22 -65 63 -7 31 -5 39 10 47 29 16 35 12 15 -10 -25 -27 -10
-73 24 -78 31 -5 41 12 41 70 0 37 5 50 22 62 29 20 42 20 60 -1z m27 -249
l-63 -64 59 -1 c82 -2 119 -11 123 -31 2 -12 -2 -15 -16 -11 -24 6 -152 -51
-152 -69 0 -9 -3 -9 -10 2 -15 23 -12 40 8 41 29 1 120 47 97 49 -11 1 -24 3
-30 5 -5 1 -35 3 -65 3 l-54 2 59 61 c51 52 56 61 34 56 -44 -11 -99 -37 -99
-48 0 -16 -17 -1 -23 20 -3 13 -1 18 9 14 20 -7 155 38 161 55 5 12 8 11 16
-3 7 -14 -3 -30 -54 -81z m154 -214 c6 -23 3 -25 -29 -26 -50 -1 -65 -20 -28
-34 16 -7 40 -13 54 -14 18 -2 26 -10 28 -27 2 -15 0 -20 -5 -12 -5 7 -26 20
-48 29 l-39 16 -28 -34 c-15 -18 -34 -46 -41 -61 -13 -26 -15 -27 -20 -8 -3
14 6 35 29 65 40 53 43 70 12 61 -13 -4 -31 -9 -40 -11 -10 -3 -18 -11 -18
-17 0 -19 -20 16 -20 35 0 11 5 15 15 12 20 -8 142 25 156 43 14 16 14 16 22
-17z m31 -252 c-75 -81 -103 -113 -100 -115 6 -6 132 22 138 31 4 6 8 1 8 -12
0 -13 -4 -21 -9 -18 -7 5 -87 -5 -153 -20 -16 -3 -28 -1 -28 4 0 5 28 39 61
76 34 37 60 68 58 70 -2 2 -32 -1 -66 -7 -45 -8 -63 -15 -64 -26 0 -12 -3 -10
-9 4 -12 27 -12 37 0 30 15 -9 170 17 170 29 0 6 5 5 12 -2 9 -9 5 -19 -18
-44z m60 -320 c9 -12 16 -25 16 -29 0 -3 -39 -9 -87 -13 -48 -3 -90 -11 -94
-17 -8 -13 -19 13 -19 44 0 16 3 18 12 9 13 -13 158 -17 158 -4 0 4 -5 13 -12
20 -9 9 -9 12 -1 12 7 0 19 -10 27 -22z m-81 -243 c56 -5 82 -3 92 5 13 11 15
7 15 -24 0 -20 -7 -52 -14 -71 -12 -29 -20 -35 -44 -35 -16 0 -36 8 -44 18
-18 20 -32 72 -19 72 4 0 11 -13 14 -29 11 -55 87 -47 87 9 l0 30 -84 0 c-58
0 -86 -4 -89 -12 -3 -7 -6 5 -6 27 0 22 3 35 7 29 4 -6 42 -15 85 -19z m-8
-206 c62 -8 80 -7 86 3 6 8 9 1 9 -21 0 -25 -3 -31 -12 -23 -7 5 -46 13 -87
17 -57 6 -75 4 -82 -6 -15 -25 -10 -56 14 -72 22 -15 22 -15 -7 -10 -28 6 -28
7 -22 57 3 28 6 60 6 71 0 15 3 16 9 7 5 -8 42 -18 86 -23z m42 -204 c33 -38
31 -98 -3 -130 -48 -44 -97 -42 -151 8 -35 31 -31 90 7 129 28 28 36 30 78 25
34 -4 53 -12 69 -32z m-162 -205 c19 -8 19 -9 1 -9 -43 -2 -71 -52 -44 -79 19
-19 35 -14 74 23 45 44 90 48 100 10 6 -26 0 -60 -15 -84 -7 -10 -15 -11 -37
-3 -25 9 -26 11 -7 11 46 2 73 63 33 76 -16 5 -32 -4 -65 -34 -50 -46 -52 -47
-83 -25 -25 17 -28 42 -10 91 12 34 20 37 53 23z m36 -219 c50 -50 34 -136
-31 -159 -36 -13 -92 3 -119 34 -19 23 -22 35 -18 68 12 84 108 117 168 57z
m-128 -236 c32 -15 64 -24 72 -21 19 7 18 -2 0 -34 -8 -14 -14 -19 -15 -13 0
11 -49 43 -65 43 -12 0 -3 -28 21 -63 16 -24 23 -44 19 -55 -6 -14 -9 -12 -15
9 -4 14 -15 38 -25 52 -18 28 -37 29 -117 2 -35 -12 -37 -11 -28 6 7 12 31 22
70 30 33 6 60 15 60 20 0 14 -60 41 -76 35 -8 -3 -13 -2 -11 2 2 4 7 15 11 26
6 17 8 17 24 3 10 -9 43 -28 75 -42z m-106 -198 c37 -21 73 -35 79 -33 10 4
11 0 2 -19 -11 -25 -28 -34 -28 -15 0 5 -30 27 -67 49 l-68 40 -17 -21 c-21
-24 -23 -49 -6 -66 8 -8 8 -12 1 -12 -6 0 -16 7 -23 15 -11 13 -9 23 10 58 34
61 44 74 48 56 2 -8 33 -31 69 -52z m-85 -204 c22 -30 38 -56 36 -58 -2 -2
-44 5 -93 16 -50 10 -96 17 -102 14 -17 -6 -16 7 2 31 10 12 17 15 22 8 19
-26 42 -23 62 9 18 29 19 33 4 49 -9 10 -20 15 -24 12 -13 -8 -11 10 3 24 9 9
16 4 30 -20 11 -17 37 -55 60 -85z m-166 -162 c67 -54 89 -58 89 -15 0 27 2
30 17 21 9 -6 14 -16 11 -22 -12 -20 -88 -114 -94 -115 -3 0 -14 7 -25 16 -18
15 -18 15 4 9 22 -6 52 8 52 25 0 16 -130 111 -141 104 -13 -7 -6 8 15 35 9
12 11 12 14 0 2 -8 28 -34 58 -58z m-156 -73 c0 -15 110 -114 122 -110 19 6 5
-17 -35 -56 -41 -40 -45 -42 -58 -26 -12 16 -12 17 3 11 10 -3 26 2 39 12 25
20 20 49 -13 70 -19 12 -23 11 -34 -4 -8 -10 -11 -22 -8 -26 8 -13 -10 -11
-24 3 -16 16 -15 29 1 22 8 -3 20 2 27 11 11 13 9 20 -15 45 -27 29 -29 29
-48 13 -32 -29 -40 -52 -25 -71 12 -16 11 -16 -7 -2 -11 8 -22 15 -24 17 -6 4
80 103 90 103 5 0 9 -6 9 -12z m-78 -221 c30 -32 51 -60 46 -63 -4 -3 -47 2
-94 11 -48 9 -88 14 -90 12 -8 -8 80 -98 93 -93 20 8 16 -8 -7 -22 -16 -10
-20 -10 -20 1 0 7 -25 39 -55 72 -30 33 -54 63 -55 68 0 11 27 9 109 -8 40 -9
76 -13 79 -11 3 3 -17 28 -45 56 -35 34 -46 53 -39 60 7 7 12 5 17 -8 4 -10
31 -44 61 -75z"/>
<path d="M4577 5466 c-6 -15 11 -36 29 -36 6 0 17 7 25 16 10 13 10 17 -2 25
-21 13 -46 11 -52 -5z"/>
<path d="M5470 2990 c-72 -72 64 -161 143 -92 24 21 21 59 -8 87 -32 33 -105
35 -135 5z"/>
<path d="M5370 2577 c-61 -31 -44 -106 29 -128 71 -21 125 20 106 81 -13 42
-91 69 -135 47z"/>
<path d="M5107 1955 l-17 -24 41 -11 c22 -6 43 -10 45 -8 2 3 -9 19 -24 36
l-27 32 -18 -25z"/>
<path d="M3610 5341 c0 -14 10 -21 35 -25 36 -7 72 -44 97 -101 17 -38 29
-1517 13 -1507 -34 20 -65 47 -65 58 0 6 -7 17 -15 24 -13 11 -14 10 -9 -4 4
-12 0 -16 -15 -16 -12 0 -21 -4 -21 -10 0 -5 7 -7 15 -4 11 5 15 -1 15 -17 0
-19 -2 -21 -10 -9 -8 13 -10 12 -10 -2 0 -31 -19 -19 -23 15 l-4 32 -1 -33
c-2 -30 -4 -32 -29 -26 -16 4 -30 11 -32 17 -2 5 -6 4 -10 -2 -5 -8 -16 -8
-39 0 -24 8 -32 17 -32 36 0 13 4 21 10 18 6 -3 7 1 4 9 -8 21 -13 20 -22 -4
-7 -20 -9 -19 -49 10 -64 47 -113 60 -227 59 -55 0 -121 -4 -146 -7 -39 -6
-45 -11 -53 -38 l-9 -31 -102 -6 c-119 -6 -148 -16 -195 -64 l-34 -35 26 -107
c36 -143 56 -273 63 -411 4 -65 13 -129 21 -146 28 -63 180 -194 224 -194 9 0
72 27 141 60 68 32 161 71 206 86 74 25 84 26 99 12 23 -20 119 -68 135 -68 7
1 -1 7 -17 14 -74 32 -110 114 -103 236 12 205 186 365 321 293 18 -9 36 -16
42 -14 5 1 7 0 3 -4 -3 -4 5 -28 18 -55 20 -39 24 -63 24 -131 0 -45 3 -80 6
-76 15 15 5 157 -14 201 -24 53 -27 51 95 67 132 17 304 0 308 -31 10 -60 9
-65 -5 -65 -19 0 -86 -116 -106 -185 -9 -31 -14 -74 -11 -97 2 -24 1 -40 -4
-37 -5 3 -9 0 -9 -6 0 -7 -7 -10 -15 -7 -11 5 -12 1 -5 -18 7 -19 5 -27 -8
-35 -14 -9 -13 -10 7 -4 l24 6 -23 -33 c-13 -19 -35 -47 -49 -64 l-26 -30 32
29 c18 16 45 47 59 68 29 41 44 48 44 21 0 -15 2 -16 10 -3 8 12 10 12 16 -4
5 -14 9 -15 16 -4 7 10 11 9 23 -6 8 -11 15 -15 15 -9 0 16 -28 36 -39 28 -7
-3 -8 0 -5 9 8 20 14 20 42 0 21 -14 22 -23 22 -133 l0 -117 -77 9 c-85 9
-283 3 -292 -10 -3 -4 -25 -9 -48 -11 l-43 -2 0 150 c0 118 -3 150 -12 144 -7
-4 -5 1 4 12 21 24 68 124 68 144 0 11 -42 -79 -51 -110 -1 -3 -5 13 -8 35 -4
24 -1 57 7 84 16 48 12 139 -8 183 -31 67 -121 69 -195 5 l-39 -34 30 4 c27 4
33 1 43 -24 15 -36 1 -74 -34 -93 -29 -16 -53 -7 -64 22 -9 23 -9 23 -21 -7
-19 -48 -9 -155 18 -192 42 -59 127 -51 200 19 l32 32 0 -36 c0 -29 -8 -42
-39 -71 -22 -20 -59 -41 -83 -47 -59 -15 -66 -18 -43 -19 40 -2 96 21 132 52
l36 31 -6 -184 c-6 -213 -17 -267 -83 -410 -84 -179 -219 -354 -367 -476 -36
-30 -45 -42 -37 -54 23 -35 289 141 440 290 138 137 239 291 284 435 10 31 25
59 33 62 8 3 60 0 116 -7 188 -24 221 -25 282 -13 78 16 268 16 375 -1 47 -7
88 -11 92 -9 4 2 7 190 8 417 l0 414 -31 11 c-18 6 -44 11 -58 11 -21 0 -23 2
-11 11 11 7 5 8 -21 4 -47 -9 -171 -13 -164 -7 3 3 15 6 28 7 12 2 21 7 20 12
-1 6 8 9 21 8 13 -2 29 1 37 5 7 5 21 4 31 -1 14 -8 16 -6 11 8 -5 13 -3 15
11 10 11 -5 15 -3 10 5 -5 7 -2 9 8 5 9 -3 21 0 27 6 8 8 11 8 11 -2 0 -7 5
-9 10 -6 6 4 7 11 4 17 -4 7 0 7 13 0 10 -6 25 -7 33 -2 8 4 38 10 65 13 28 2
68 13 89 24 l39 20 -27 7 c-15 4 -30 4 -35 2 -6 -4 -190 -36 -207 -36 -4 0 -4
16 -1 35 5 32 4 35 -18 35 -22 0 -23 -2 -14 -32 5 -18 9 -34 9 -36 0 -7 -73
-33 -78 -27 -3 3 -5 24 -3 45 3 42 -5 47 -44 30 -17 -7 -17 -9 -2 -9 13 -1 17
-10 17 -41 0 -38 -3 -42 -42 -59 l-43 -18 -8 49 c-11 64 -32 59 -28 -6 2 -34
-2 -53 -15 -67 -18 -20 -34 -25 -34 -10 0 6 -9 26 -21 45 l-21 36 -42 -29
c-23 -16 -47 -35 -53 -43 -13 -15 -93 -16 -240 -3 l-93 8 0 832 c0 741 2 837
16 879 21 60 81 126 117 126 20 0 24 4 20 20 -5 19 -14 20 -294 20 -277 0
-289 -1 -289 -19z m-216 -1545 c31 -21 56 -41 56 -45 1 -3 5 -25 9 -48 6 -29
5 -46 -3 -52 -17 -13 -111 -31 -165 -31 -53 0 -61 8 -61 60 0 20 -8 35 -27 48
-43 29 -159 92 -171 92 -6 0 -15 -12 -20 -27 -8 -22 -11 -24 -11 -8 0 11 3 26
8 33 11 18 131 29 243 22 80 -5 91 -9 142 -44z m283 -63 c-3 -10 -5 -4 -5 12
0 17 2 24 5 18 2 -7 2 -21 0 -30z m-810 19 c-3 -4 29 -6 71 -4 83 4 148 -12
122 -29 -13 -8 -13 -10 0 -19 13 -9 12 -12 -5 -26 -11 -8 -30 -13 -43 -11 -12
2 -25 0 -28 -4 -8 -13 -69 -11 -99 3 -14 6 -25 20 -25 30 0 13 4 17 13 12 6
-4 3 3 -8 15 l-20 23 -3 -37 c-2 -21 1 -42 6 -47 17 -17 96 -29 147 -22 61 8
82 18 90 43 6 18 11 16 75 -25 64 -41 73 -44 142 -45 65 -1 69 -2 33 -9 -22
-5 -76 -14 -120 -20 -130 -19 -213 -40 -219 -56 -3 -8 -9 -65 -12 -127 -7
-107 -9 -113 -37 -140 l-30 -28 6 98 c3 54 8 107 11 118 5 16 -5 26 -52 53
-80 46 -212 150 -212 168 0 21 7 18 53 -27 60 -58 186 -141 210 -137 11 2 24
13 28 26 8 20 -2 29 -99 93 -113 75 -142 97 -142 110 0 4 17 11 38 17 45 12
115 15 109 4z m873 -52 c24 -17 27 -25 23 -60 -3 -25 -1 -40 6 -40 8 0 7 -6
-1 -20 -13 -20 -56 -27 -73 -12 -6 5 -29 14 -53 21 -24 7 -49 22 -57 35 -14
20 -22 23 -60 18 l-45 -5 0 34 0 34 89 -3 c52 -2 97 1 108 7 25 15 31 14 63
-9z m-280 -86 c0 -12 -6 -15 -22 -10 -13 3 -30 6 -38 7 -8 1 -1 5 15 9 45 11
45 11 45 -6z m-2 -29 c33 -10 27 -21 -12 -21 -77 0 -185 -89 -217 -179 -7 -19
-16 -35 -20 -35 -5 0 -6 -9 -4 -20 4 -22 -7 -25 -35 -10 -11 6 -17 17 -14 25
4 8 11 12 18 8 8 -5 7 -2 -1 8 -9 11 -8 24 7 57 40 89 116 159 188 172 37 8
49 7 90 -5z m-205 -49 c-32 -29 -62 -70 -83 -113 -30 -61 -34 -77 -34 -153 -1
-47 5 -140 13 -207 12 -110 16 -123 33 -123 11 0 28 5 40 11 11 6 21 9 24 7 5
-6 -249 -118 -267 -118 -11 0 -19 16 -27 53 -15 71 -35 227 -29 233 2 2 13 -3
24 -13 15 -13 24 -40 32 -98 14 -96 28 -135 49 -135 11 0 13 8 8 38 -3 20 -9
76 -13 125 -6 81 -8 88 -32 100 -38 18 -38 55 -1 101 26 33 30 47 30 100 1 33
6 88 13 120 12 56 15 60 51 73 47 16 162 41 195 42 20 1 17 -5 -26 -43z m465
4 c42 0 42 0 42 -36 0 -30 -3 -35 -17 -29 -10 4 -38 14 -63 22 -88 30 -110 42
-110 61 0 18 1 18 53 1 28 -10 71 -18 95 -19z m-930 -113 c37 -102 59 -203 68
-319 7 -96 -3 -113 -34 -58 -19 34 -42 40 -42 11 0 -27 107 -141 126 -134 8 3
14 1 14 -3 0 -5 3 -20 7 -33 5 -19 3 -22 -9 -15 -38 22 -92 73 -128 120 l-40
51 1 99 c0 70 3 93 10 79 6 -14 8 0 4 44 -3 35 -6 76 -6 90 -1 22 -3 21 -10
-9 -5 -24 -6 -14 -3 32 4 54 1 76 -15 114 -27 61 -26 75 3 42 13 -14 37 -64
54 -111z m765 98 c35 -2 44 -11 18 -20 -12 -4 -39 4 -70 20 -59 30 -68 43 -13
19 20 -9 49 -17 65 -19z m-67 -6 c24 -11 44 -24 44 -29 0 -10 -109 35 -125 52
-13 13 20 4 81 -23z m-51 -15 c65 -26 90 -52 38 -39 -47 11 -113 43 -113 54 0
15 1 15 75 -15z m1026 -1 c4 -62 -4 -80 -59 -135 -31 -32 -57 -56 -59 -54 -2
1 -7 25 -12 52 -11 55 -2 70 73 125 45 34 56 36 57 12z m-1066 -32 c58 -26 84
-51 55 -51 -19 0 -130 60 -130 70 0 14 3 13 75 -19z m285 19 c12 -8 9 -10 -13
-10 -108 0 -227 -154 -243 -314 -5 -49 -10 -55 -29 -30 -14 18 -14 18 -16 -6
-1 -23 -2 -23 -8 5 -9 40 10 140 38 193 29 57 95 129 140 152 39 21 107 26
131 10z m-310 -60 c33 -17 60 -35 60 -40 0 -6 -2 -10 -5 -10 -13 0 -135 65
-135 72 0 14 19 9 80 -22z m1367 4 c20 -5 22 -12 20 -51 -2 -39 1 -47 20 -56
l23 -10 0 -296 0 -297 -172 0 c-126 0 -188 -5 -226 -16 -46 -13 -54 -13 -59
-1 -3 7 -3 98 -1 201 l4 187 64 83 c49 66 60 86 49 93 -11 7 -10 9 4 9 22 0
191 127 195 146 4 15 41 18 79 8z m-1332 -84 c-4 -6 -19 -4 -38 6 -18 8 -48
23 -67 32 -19 9 -37 18 -39 19 -1 1 0 6 4 12 4 7 31 -2 76 -24 38 -20 67 -40
64 -45z m917 -1 c2 -30 -3 -65 -11 -83 l-14 -31 -12 65 c-11 57 -11 67 3 83
24 27 30 21 34 -34z m241 12 c-86 -69 -93 -72 -114 -66 l-22 7 23 13 c17 9 20
14 9 19 -8 3 -4 4 9 2 19 -4 21 -2 11 10 -9 12 -9 13 2 10 8 -3 30 3 49 13 41
20 62 15 33 -8z m-1243 -11 c33 -17 60 -35 60 -40 0 -10 -116 42 -134 60 -19
19 13 11 74 -20z m404 5 c61 -66 33 -221 -55 -300 -25 -23 -49 -35 -67 -34
l-27 0 25 17 c13 9 36 28 50 40 l25 24 -25 -16 c-13 -9 -34 -16 -46 -16 -29 0
-39 27 -13 35 10 4 31 22 46 41 23 30 28 33 36 19 5 -9 7 -25 4 -36 -9 -34 4
-20 25 28 28 64 27 137 -3 169 -12 13 -31 24 -41 24 -20 0 -24 16 -5 23 27 11
49 6 71 -18z m-421 -46 c55 -29 75 -45 41 -32 -32 12 -119 63 -108 63 6 0 36
-14 67 -31z m387 -15 c0 -30 -25 -32 -40 -3 -9 15 -8 24 1 35 16 19 39 0 39
-32z m580 -52 c0 -13 -7 -37 -16 -54 l-16 -30 -26 23 c-15 13 -21 17 -14 9 20
-24 14 -67 -20 -121 -30 -50 -32 -51 -40 -28 -17 43 19 188 42 174 6 -3 7 1 4
10 -4 9 5 33 21 57 l27 41 19 -29 c10 -16 19 -39 19 -52z m-975 32 c36 -20 64
-38 61 -41 -5 -5 -136 65 -136 73 0 8 10 4 75 -32z m-113 4 c14 -11 35 -108
23 -108 -2 0 -16 5 -30 12 -22 10 -25 17 -25 60 0 50 6 56 32 36z m1218 -18
c-8 -5 -19 -10 -25 -10 -5 0 -3 5 5 10 8 5 20 10 25 10 6 0 3 -5 -5 -10z
m-1109 -31 c34 -17 59 -32 57 -35 -3 -2 -33 12 -69 31 -79 43 -70 46 12 4z
m46 -115 c-5 -5 -76 32 -92 48 -5 6 14 -2 43 -17 30 -14 52 -29 49 -31z m1038
46 c-3 -5 -13 -7 -23 -4 -14 5 -14 4 -3 -4 12 -9 8 -19 -23 -57 -37 -45 -82
-73 -95 -59 -3 4 0 9 7 11 6 3 10 9 6 14 -3 5 3 9 13 10 16 0 16 1 -2 9 -17 7
-16 9 10 9 23 1 27 4 15 11 -12 8 -10 10 10 11 23 0 23 1 5 9 -17 7 -16 9 10
10 17 1 24 4 18 7 -7 2 -13 9 -13 14 0 6 4 8 9 4 5 -3 12 -1 16 5 3 5 15 10
26 10 11 0 18 -4 14 -10z m-1019 -88 c-6 -5 -96 41 -96 49 0 4 22 -5 49 -19
27 -15 48 -28 47 -30z m-101 10 l-7 23 17 -23 c9 -13 14 -26 11 -29 -8 -8 -63
16 -78 35 -9 11 -1 9 25 -6 l38 -22 -6 22z"/>
<path d="M3399 3726 c-2 -3 -33 -6 -67 -7 -35 -1 -65 -6 -68 -11 -7 -10 135 1
156 13 13 7 13 8 -1 9 -9 0 -18 -2 -20 -4z"/>
<path d="M3430 3683 c0 -15 -2 -16 -10 -3 -6 9 -10 10 -10 3 0 -7 -10 -10 -25
-7 -16 3 -25 0 -25 -8 0 -8 -3 -9 -8 -3 -10 14 -42 15 -42 1 0 -6 -5 -4 -10 4
-8 12 -10 12 -10 1 0 -11 -3 -11 -15 -1 -8 7 -15 9 -15 4 1 -22 18 -31 55 -28
22 2 59 4 83 5 38 1 42 3 42 25 0 13 -2 24 -5 24 -3 0 -5 -8 -5 -17z"/>
<path d="M2922 3703 c18 -3 28 -12 31 -26 4 -18 5 -17 6 6 1 24 -2 27 -31 26
-30 -2 -30 -2 -6 -6z"/>
<path d="M2972 3685 c0 -16 2 -22 5 -12 2 9 2 23 0 30 -3 6 -5 -1 -5 -18z"/>
<path d="M3003 3703 c9 -2 23 -2 30 0 6 3 -1 5 -18 5 -16 0 -22 -2 -12 -5z"/>
<path d="M3640 3600 c8 -5 22 -9 30 -9 10 0 8 3 -5 9 -27 12 -43 12 -25 0z"/>
<path d="M3180 3382 c0 -5 7 -13 16 -16 10 -4 14 -1 12 6 -5 15 -28 23 -28 10z"/>
<path d="M3116 3502 c-13 -22 -27 -158 -28 -273 0 -137 10 -279 21 -279 4 0 4
26 0 58 -12 92 -9 310 5 407 13 88 13 105 2 87z"/>
<path d="M3010 3237 c0 -2 7 -18 15 -33 13 -25 15 -26 15 -8 0 12 -7 27 -15
34 -8 7 -15 10 -15 7z"/>
<path d="M2982 3198 c6 -18 28 -21 28 -4 0 9 -7 16 -16 16 -9 0 -14 -5 -12
-12z"/>
<path d="M2180 5219 c-67 -8 -279 -52 -340 -70 -19 -6 -53 -19 -75 -29 -22 -9
-58 -23 -80 -30 -44 -14 -170 -79 -255 -131 -230 -141 -438 -350 -585 -589
-87 -141 -156 -302 -201 -470 -49 -179 -56 -254 -51 -515 4 -238 5 -241 41
-379 71 -267 181 -489 340 -689 55 -70 229 -242 291 -287 33 -25 62 -47 65
-51 16 -18 132 -86 241 -141 139 -71 342 -141 471 -164 119 -21 421 -29 543
-15 118 14 248 41 325 69 l55 19 -200 5 c-149 4 -225 11 -298 27 -113 24 -207
50 -222 61 -5 4 -35 15 -65 25 -57 18 -213 93 -259 124 -14 10 -52 34 -83 55
-31 21 -67 47 -80 58 -13 11 -41 35 -63 53 -218 181 -397 442 -501 729 -49
137 -94 399 -94 551 0 91 28 302 55 420 35 153 134 372 237 524 263 390 669
647 1143 727 67 11 155 16 269 16 93 0 165 3 160 8 -14 13 -281 75 -389 90
-81 11 -301 11 -395 -1z"/>
<path d="M2599 4359 c-47 -28 -69 -66 -69 -122 0 -59 24 -87 115 -135 63 -33
70 -40 70 -67 0 -26 -5 -31 -36 -39 -32 -8 -77 5 -140 41 -6 4 -49 -70 -49
-85 0 -22 104 -56 175 -57 84 0 131 22 157 75 43 85 7 155 -106 209 -69 32
-91 53 -82 76 10 28 51 35 102 18 45 -15 48 -15 61 3 22 30 27 65 12 75 -53
34 -159 38 -210 8z"/>
<path d="M2890 4140 l0 -240 55 0 55 0 0 240 0 240 -55 0 -55 0 0 -240z"/>
<path d="M1720 4135 l0 -235 55 0 54 0 3 95 3 96 83 -96 83 -95 70 0 c38 0 69
3 69 6 0 3 -48 59 -106 125 l-106 119 79 93 c120 141 116 127 40 127 l-65 0
-73 -90 -74 -89 -3 89 -3 90 -54 0 -55 0 0 -235z"/>
<path d="M2170 4135 l0 -235 135 0 135 0 0 48 0 47 -77 0 -78 0 -3 48 -3 47
81 0 81 0 -3 48 -3 47 -77 3 -78 3 0 44 0 45 80 0 80 0 0 45 0 45 -135 0 -135
0 0 -235z"/>
<path d="M3040 4325 l0 -45 55 0 55 0 0 -190 0 -190 55 0 55 0 0 190 0 190 55
0 55 0 0 45 0 45 -165 0 -165 0 0 -45z"/>
<path d="M1916 3833 c-11 -11 -6 -23 9 -23 8 0 15 4 15 9 0 13 -16 22 -24 14z"/>
<path d="M2046 3833 c-11 -11 -6 -23 9 -23 8 0 15 4 15 9 0 13 -16 22 -24 14z"/>
<path d="M1730 3725 c0 -63 4 -105 10 -105 6 0 10 18 10 40 0 22 4 40 8 40 5
0 16 -18 25 -40 25 -64 38 -46 14 19 -21 58 -21 59 -3 100 25 54 13 64 -16 15
l-23 -39 -3 38 c-2 20 -7 37 -13 37 -5 0 -9 -46 -9 -105z"/>
<path d="M1980 3801 c0 -12 -4 -21 -8 -21 -8 0 -6 -92 4 -137 4 -23 44 -34 44
-13 0 6 -4 10 -10 10 -15 0 -13 117 3 124 10 5 10 7 0 12 -7 3 -13 12 -13 19
0 8 -4 17 -10 20 -5 3 -10 -3 -10 -14z"/>
<path d="M3533 3813 c9 -2 25 -2 35 0 9 3 1 5 -18 5 -19 0 -27 -2 -17 -5z"/>
<path d="M1841 3703 c-1 -49 3 -83 9 -83 6 0 10 28 10 65 0 50 4 66 17 74 10
5 15 13 11 17 -4 4 -14 2 -22 -5 -11 -9 -15 -9 -19 1 -3 7 -6 -24 -6 -69z"/>
<path d="M1910 3699 c0 -60 3 -80 13 -77 8 3 13 31 15 81 2 64 0 77 -13 77
-12 0 -15 -15 -15 -81z"/>
<path d="M2040 3700 c0 -64 3 -80 15 -80 12 0 15 16 15 80 0 64 -3 80 -15 80
-12 0 -15 -16 -15 -80z"/>
<path d="M2107 3773 c-17 -16 -6 -63 18 -79 27 -18 34 -54 10 -54 -8 0 -15 7
-15 15 0 8 -5 15 -11 15 -6 0 -9 -10 -7 -22 2 -18 10 -23 33 -23 26 0 30 4 33
32 3 25 -2 35 -22 49 -28 17 -35 54 -12 54 8 0 16 -6 19 -12 2 -7 8 -10 12 -6
14 13 -4 38 -28 38 -13 0 -27 -3 -30 -7z"/>
<path d="M3520 3770 c14 -4 36 -8 50 -8 22 0 22 1 -5 8 -16 4 -39 8 -50 8 -16
0 -15 -2 5 -8z"/>
<path d="M2507 3498 c-14 -37 -11 -188 4 -188 5 0 9 28 9 63 0 37 5 68 12 75
10 10 10 14 0 21 -13 8 -6 41 9 41 5 0 9 5 9 10 0 24 -32 7 -43 -22z"/>
<path d="M1830 3415 c0 -63 4 -105 10 -105 6 0 11 6 11 13 1 6 2 17 4 22 1 6
3 17 4 25 1 8 9 -2 18 -22 8 -21 21 -38 29 -38 10 0 9 11 -8 45 -21 43 -21 46
-5 74 20 34 21 41 7 41 -6 0 -16 -11 -22 -25 -12 -26 -26 -33 -25 -12 1 46 -5
87 -13 87 -6 0 -10 -42 -10 -105z"/>
<path d="M2440 3510 c0 -5 5 -10 10 -10 6 0 10 5 10 10 0 6 -4 10 -10 10 -5 0
-10 -4 -10 -10z"/>
<path d="M1730 3410 l0 -100 35 0 c19 0 35 5 35 10 0 6 -11 10 -25 10 -22 0
-25 4 -25 35 0 31 3 35 25 35 31 0 33 17 3 22 -18 2 -24 11 -26 36 -3 29 -1
32 22 32 14 0 26 5 26 10 0 6 -16 10 -35 10 l-35 0 0 -100z"/>
<path d="M4720 3500 c-8 -5 -12 -12 -9 -15 4 -3 12 1 19 10 14 17 11 19 -10 5z"/>
<path d="M4840 3500 c-9 -6 -10 -10 -3 -10 6 0 15 5 18 10 8 12 4 12 -15 0z"/>
<path d="M1938 3445 c-10 -23 -8 -29 20 -58 35 -37 40 -52 17 -61 -10 -4 -19
2 -24 16 -4 13 -10 17 -14 11 -14 -23 5 -44 37 -41 44 4 48 40 7 82 -21 22
-28 35 -21 45 7 12 11 13 24 1 20 -15 29 -9 20 14 -10 26 -53 20 -66 -9z"/>
<path d="M2058 3463 c-16 -4 -18 -18 -18 -104 0 -59 4 -99 10 -99 6 0 10 13
10 28 0 24 4 28 28 27 l27 0 0 75 c0 80 -6 87 -57 73z m40 -75 c-3 -66 -16
-81 -32 -37 -12 35 1 99 20 99 12 0 14 -12 12 -62z"/>
<path d="M2157 3464 c-4 -4 -7 -40 -7 -81 0 -58 3 -73 15 -73 12 0 15 14 15
65 0 50 4 66 17 74 10 5 15 13 11 17 -4 4 -14 2 -22 -5 -10 -8 -15 -9 -18 -1
-2 6 -7 8 -11 4z"/>
<path d="M2230 3451 c-13 -25 -13 -97 0 -122 13 -23 58 -26 67 -4 8 23 -7 33
-18 12 -13 -23 -29 -13 -29 19 0 20 5 24 31 24 31 0 31 1 24 37 -4 21 -9 41
-11 45 -10 16 -54 8 -64 -11z m50 -26 c0 -14 -6 -25 -13 -25 -20 0 -25 9 -20
31 8 28 33 24 33 -6z"/>
<path d="M2347 3463 c-15 -15 -5 -59 19 -84 18 -19 24 -33 20 -46 -7 -17 -9
-16 -26 4 -20 26 -34 19 -19 -9 7 -13 19 -18 37 -16 38 4 42 45 7 78 -14 13
-25 32 -25 42 0 21 11 23 28 6 15 -15 24 -6 16 16 -6 16 -44 22 -57 9z"/>
<path d="M2440 3390 c0 -47 4 -80 10 -80 6 0 10 33 10 80 0 47 -4 80 -10 80
-6 0 -10 -33 -10 -80z"/>
<path d="M3760 3411 c0 -17 5 -31 10 -31 6 0 10 11 10 24 0 14 -4 28 -10 31
-6 4 -10 -7 -10 -24z"/>
<path d="M1748 3199 c-30 -17 -23 -74 12 -106 22 -19 30 -35 28 -52 -4 -34
-26 -38 -38 -6 -11 30 -31 26 -23 -5 8 -29 38 -43 63 -30 32 17 27 70 -10 105
-21 20 -30 37 -28 54 4 31 28 40 35 12 7 -27 23 -27 23 -1 0 10 -9 24 -19 30
-23 12 -22 12 -43 -1z"/>
<path d="M1950 3105 c0 -87 3 -105 15 -105 12 0 15 18 15 105 0 87 -3 105 -15
105 -12 0 -15 -18 -15 -105z"/>
<path d="M2010 3200 c0 -5 7 -10 15 -10 8 0 15 5 15 10 0 6 -7 10 -15 10 -8 0
-15 -4 -15 -10z"/>
<path d="M2130 3182 c0 -24 -4 -28 -27 -27 -28 0 -28 -1 -31 -68 -3 -72 8
-100 35 -90 13 5 13 7 -1 15 -21 12 -23 128 -2 128 15 0 31 -63 21 -81 -9 -14
3 -59 15 -59 6 0 10 43 10 105 0 63 -4 105 -10 105 -5 0 -10 -13 -10 -28z"/>
<path d="M2365 3200 c-3 -5 1 -10 9 -10 9 0 16 5 16 10 0 6 -4 10 -9 10 -6 0
-13 -4 -16 -10z"/>
<path d="M2423 3165 c-6 -14 -7 -25 -2 -25 5 0 9 -31 9 -69 0 -51 4 -70 15
-74 8 -4 17 -2 20 3 4 6 1 10 -4 10 -16 0 -14 127 2 134 10 5 10 7 0 12 -7 3
-13 12 -13 20 0 22 -14 16 -27 -11z"/>
<path d="M1850 3141 c-16 -31 -12 -117 6 -135 18 -19 20 -19 45 -6 16 9 19 22
19 73 0 36 -5 68 -12 75 -18 18 -46 14 -58 -7z m48 -61 c3 -56 -11 -87 -28
-60 -11 17 -13 80 -4 105 12 31 29 8 32 -45z"/>
<path d="M2017 3153 c-11 -11 -8 -153 3 -153 11 0 11 1 12 90 0 61 -3 76 -15
63z"/>
<path d="M2189 3144 c-11 -13 -9 -14 14 -9 16 4 27 3 27 -3 0 -6 3 -17 6 -25
4 -11 -2 -16 -23 -19 -24 -3 -28 -8 -31 -39 -3 -40 20 -71 40 -51 6 6 17 8 24
5 11 -4 14 8 14 57 0 34 -5 70 -10 81 -13 23 -43 25 -61 3z m44 -83 c5 -22
-11 -54 -24 -46 -5 4 -9 16 -9 29 0 37 24 50 33 17z"/>
<path d="M2325 3150 c-3 -5 -12 -7 -20 -3 -12 4 -15 -8 -15 -72 0 -57 3 -76
13 -73 7 3 13 28 15 67 2 43 7 64 17 68 17 6 20 23 6 23 -6 0 -12 -4 -16 -10z"/>
<path d="M2370 3081 c0 -47 4 -81 10 -81 6 0 10 31 10 74 0 41 -4 78 -10 81
-6 4 -10 -23 -10 -74z"/>
<path d="M2507 3153 c-13 -12 -7 -22 9 -16 16 6 34 -12 34 -34 0 -6 -12 -13
-27 -15 -24 -3 -28 -8 -31 -39 -3 -40 20 -71 40 -51 6 6 17 8 24 5 11 -4 14 8
14 57 0 34 -5 70 -10 81 -10 19 -40 26 -53 12z m37 -89 c7 -19 -1 -54 -14 -54
-12 0 -21 31 -15 51 8 23 21 24 29 3z"/>
<path d="M2612 3148 c-20 -20 -14 -55 13 -76 14 -11 25 -29 25 -41 0 -24 -18
-28 -26 -6 -8 19 -24 19 -24 0 0 -12 28 -35 44 -35 11 0 36 32 36 46 0 8 -14
28 -31 44 -20 18 -30 34 -26 44 7 18 27 22 27 6 0 -5 7 -10 15 -10 13 0 14 4
5 20 -12 22 -40 26 -58 8z"/>
<path d="M3726 3005 c-3 -8 -12 -15 -19 -15 -8 0 -21 -7 -28 -17 -15 -17 -12
-16 33 6 26 13 46 41 29 41 -5 0 -11 -7 -15 -15z"/>
<path d="M3625 2955 l-30 -13 27 -1 c15 -1 30 4 33 10 11 17 2 18 -30 4z"/>
<path d="M2362 2898 c-7 -7 -12 -19 -12 -28 0 -9 -5 -21 -11 -27 -8 -8 -8 -13
0 -17 6 -4 11 -36 11 -72 0 -36 4 -64 10 -64 6 0 10 30 10 69 0 46 4 71 13 74
10 4 10 6 0 6 -18 1 -16 40 2 47 8 4 12 10 9 15 -7 12 -18 11 -32 -3z"/>
<path d="M2290 2885 c0 -8 5 -15 10 -15 6 0 10 7 10 15 0 8 -4 15 -10 15 -5 0
-10 -7 -10 -15z"/>
<path d="M1730 2790 c0 -60 4 -100 10 -100 6 0 10 40 10 100 0 60 -4 100 -10
100 -6 0 -10 -40 -10 -100z"/>
<path d="M2225 2860 c-5 -14 -8 -54 -6 -90 3 -66 19 -99 41 -85 9 6 8 10 -4
17 -24 13 -23 113 2 127 10 6 12 11 4 11 -7 0 -16 10 -21 22 l-8 23 -8 -25z"/>
<path d="M1815 2840 c-4 -6 -11 -8 -16 -5 -5 4 -9 -25 -9 -69 0 -44 4 -76 10
-76 6 0 10 26 10 58 0 65 13 97 30 72 5 -8 10 -41 10 -72 0 -32 5 -58 10 -58
13 0 13 116 0 141 -12 21 -35 25 -45 9z"/>
<path d="M1918 2839 c-14 -8 -18 -24 -18 -74 0 -54 3 -66 20 -75 14 -8 26 -8
40 0 17 9 20 21 20 75 0 53 -3 66 -19 75 -23 12 -22 12 -43 -1z m40 -65 c3
-56 -11 -89 -28 -64 -11 17 -14 103 -3 114 16 16 28 -4 31 -50z"/>
<path d="M2119 2834 c-11 -13 -9 -14 14 -9 24 6 27 4 27 -18 0 -19 -6 -26 -22
-29 -18 -2 -24 -10 -26 -39 -4 -43 13 -59 51 -52 26 5 27 8 27 68 0 83 -35
122 -71 79z m41 -105 c0 -20 -4 -29 -12 -27 -15 5 -22 33 -14 54 9 24 26 6 26
-27z"/>
<path d="M2004 2823 c5 -16 26 -120 26 -129 0 -2 6 -4 14 -4 14 0 52 138 41
149 -8 8 -25 -20 -26 -44 0 -11 -4 -29 -9 -40 -6 -16 -9 -8 -15 33 -5 35 -12
52 -22 52 -9 0 -12 -6 -9 -17z"/>
<path d="M2290 2765 c0 -43 4 -75 10 -75 6 0 10 32 10 75 0 43 -4 75 -10 75
-6 0 -10 -32 -10 -75z"/>
<path d="M2630 2570 c0 -5 7 -10 15 -10 8 0 15 5 15 10 0 6 -7 10 -15 10 -8 0
-15 -4 -15 -10z"/>
<path d="M3070 2473 c0 -58 3 -103 6 -100 4 3 14 2 23 -3 31 -16 46 5 48 67 2
68 -11 97 -38 90 -15 -4 -19 0 -19 24 0 16 -4 29 -10 29 -6 0 -10 -42 -10
-107z m50 -29 c0 -48 -3 -65 -12 -62 -13 5 -23 89 -14 114 13 35 26 9 26 -52z"/>
<path d="M1710 2560 c0 -5 7 -10 15 -10 12 0 15 -17 15 -91 0 -68 3 -90 13
-87 8 3 13 33 15 91 1 48 7 87 12 87 6 0 10 5 10 10 0 6 -18 10 -40 10 -22 0
-40 -4 -40 -10z"/>
<path d="M1823 2523 c-24 -9 -13 -23 12 -17 22 5 25 3 25 -19 0 -19 -6 -26
-22 -29 -18 -2 -24 -10 -26 -39 -3 -40 20 -71 40 -51 6 6 17 8 24 5 11 -4 14
7 14 50 0 91 -19 120 -67 100z m35 -114 c-1 -13 -7 -23 -13 -22 -13 3 -18 30
-11 50 10 24 29 1 24 -28z"/>
<path d="M1956 2521 c-4 -6 -13 -8 -21 -4 -12 4 -15 -8 -15 -71 0 -60 3 -76
15 -76 11 0 15 16 17 67 2 42 8 68 16 71 9 3 12 -15 12 -67 0 -43 4 -71 10
-71 7 0 10 29 8 77 -2 63 -6 78 -20 81 -9 2 -19 -1 -22 -7z"/>
<path d="M2042 2507 c-5 -12 -8 -60 -7 -107 0 -92 6 -100 61 -86 19 5 24 13
24 36 0 24 -4 30 -22 30 -30 0 -52 15 -44 29 4 6 16 11 27 11 21 0 42 40 33
64 -3 8 -1 17 5 21 21 13 10 21 -29 22 -34 2 -42 -2 -48 -20z m46 -34 c-2 -21
-7 -38 -13 -38 -5 0 -11 17 -13 38 -3 29 0 37 13 37 13 0 16 -8 13 -37z m10
-125 c3 -13 -3 -18 -22 -18 -20 0 -26 5 -26 21 0 15 5 20 22 17 13 -2 24 -11
26 -20z"/>
<path d="M2152 2513 c-5 -10 -9 -58 -8 -108 l1 -90 28 -3 c62 -7 78 55 19 70
-37 10 -38 30 -1 38 20 5 25 13 27 48 2 23 8 42 14 42 25 0 -5 14 -37 17 -25
3 -37 -1 -43 -14z m46 -40 c-3 -41 -23 -56 -30 -21 -6 34 2 58 18 58 11 0 14
-9 12 -37z m10 -125 c3 -13 -3 -18 -22 -18 -20 0 -26 5 -26 21 0 15 5 20 22
17 13 -2 24 -11 26 -20z"/>
<path d="M2317 2523 c-4 -3 -7 -31 -7 -62 0 -31 -4 -62 -9 -70 -17 -27 -31 1
-31 65 0 36 -4 64 -10 64 -6 0 -10 -30 -10 -70 0 -75 11 -91 56 -82 23 4 24 8
24 83 0 79 -1 85 -13 72z"/>
<path d="M2370 2448 c0 -46 4 -78 10 -78 6 0 10 26 10 58 0 31 4 63 9 71 17
27 31 -1 31 -65 0 -36 4 -64 10 -64 15 0 13 135 -2 148 -7 6 -25 10 -40 9 -28
-2 -28 -2 -28 -79z"/>
<path d="M2491 2516 c-6 -7 -11 -36 -10 -62 1 -27 -1 -64 -5 -82 -5 -21 -3
-38 4 -47 18 -22 67 -19 80 4 14 28 3 48 -31 55 -36 7 -40 36 -4 36 25 0 27 3
39 75 4 28 2 30 -29 32 -18 2 -38 -3 -44 -11z m44 -26 c8 -26 -3 -62 -18 -57
-7 2 -13 14 -15 26 -7 45 20 71 33 31z m5 -140 c0 -13 -7 -20 -19 -20 -22 0
-35 15 -26 30 12 19 45 11 45 -10z"/>
<path d="M2636 2523 c-3 -3 -6 -48 -6 -100 0 -55 -4 -93 -10 -93 -5 0 -10 -4
-10 -10 0 -5 7 -10 15 -10 23 0 35 43 35 130 0 73 -8 99 -24 83z"/>
<path d="M2703 2523 c-24 -9 -13 -23 12 -17 22 5 25 3 25 -19 0 -19 -6 -26
-22 -29 -18 -2 -24 -11 -26 -36 -4 -40 13 -65 37 -53 9 5 22 6 29 4 9 -3 12
11 12 51 0 90 -19 119 -67 99z m35 -114 c-1 -13 -7 -23 -13 -22 -13 3 -18 30
-11 50 10 24 29 1 24 -28z"/>
<path d="M2967 2523 c-13 -12 -7 -22 9 -16 16 6 34 -12 34 -34 0 -7 -11 -13
-24 -13 -25 0 -36 -16 -36 -55 0 -26 34 -52 45 -35 3 5 12 7 20 3 12 -4 15 7
15 64 0 40 -5 74 -12 81 -13 13 -41 16 -51 5z m37 -89 c7 -19 -1 -54 -14 -54
-12 0 -21 31 -15 51 8 23 21 24 29 3z"/>
<path d="M2793 2504 c3 -11 9 -40 12 -65 9 -59 21 -80 35 -59 5 8 10 26 11 40
0 14 4 34 9 45 8 18 9 17 9 -6 2 -48 13 -89 26 -89 12 0 41 138 30 148 -9 9
-15 -4 -24 -49 l-8 -44 -9 44 c-12 59 -32 64 -40 12 -8 -51 -22 -53 -26 -4 -2
20 -9 38 -17 41 -9 3 -11 -2 -8 -14z"/>
</g>
</svg>
